Coordinates
version=1
nRows=4
nColumns=63
inDegrees=yes

Units are S.I. units (second, meters, Newtons, ...)
If the header above contains a line with 'inDegrees', this indicates whether rotational values are in degrees (yes) or radians (no).

endheader
time	pelvis_tilt	pelvis_list	pelvis_rotation	pelvis_tx	pelvis_ty	pelvis_tz	hip_flexion_r	hip_adduction_r	hip_rotation_r	knee_angle_r	knee_angle_r_beta	ankle_angle_r	subtalar_angle_r	mtp_angle_r	hip_flexion_l	hip_adduction_l	hip_rotation_l	knee_angle_l	knee_angle_l_beta	ankle_angle_l	subtalar_angle_l	mtp_angle_l	L5_S1_Flex_Ext	L5_S1_Lat_Bending	L5_S1_axial_rotation	L4_L5_Flex_Ext	L4_L5_Lat_Bending	L4_L5_axial_rotation	L3_L4_Flex_Ext	L3_L4_Lat_Bending	L3_L4_axial_rotation	L2_L3_Flex_Ext	L2_L3_Lat_Bending	L2_L3_axial_rotation	L1_L2_Flex_Ext	L1_L2_Lat_Bending	L1_L2_axial_rotation	L1_T12_Flex_Ext	L1_T12_Lat_Bending	L1_T12_axial_rotation	Abs_r3	Abs_r2	Abs_r1	Abs_t1	Abs_t2	neck_flexion	neck_bending	neck_rotation	arm_flex_r	arm_add_r	arm_rot_r	elbow_flex_r	pro_sup_r	wrist_flex_r	wrist_dev_r	arm_flex_l	arm_add_l	arm_rot_l	elbow_flex_l	pro_sup_l	wrist_flex_l	wrist_dev_l
      3.83050847	      2.32525930	     -7.37428728	     89.38890634	      0.09982748	      0.72272498	      0.76368497	     -1.43489855	      2.63581757	      8.30202728	     11.61781322	      0.20276909	     31.32576096	     -1.12122099	      0.00000000	     -1.81749189	     -0.47421565	     -7.87990352	     11.54695362	      0.20153236	     34.40344003	      0.33676656	      0.00000000	      0.02488604	     -0.17312707	     -0.64435583	      0.04621586	     -0.23025900	     -0.68462807	      0.04088527	     -0.42094115	     -0.68462807	      0.02844225	     -0.42094115	     -0.56381135	      0.02310918	     -0.35304071	     -0.52353911	      0.01421988	     -0.26817382	     -0.48326687	      0.17775849	     -1.95844799	     -3.58371380	      0.00000000	      0.00000000	     20.89747738	     -1.98866070	      9.89112657	      3.54710490	    -17.94627922	     54.83576730	     32.16537819	     58.90128844	     -2.83109654	      2.40775687	    -15.76202162	    -16.24511679	      3.67138984	     46.12293708	     89.00244267	    -14.37751114	      3.17086848
      3.84745763	      2.38552196	     -7.19648689	     89.39379495	      0.10021096	      0.72291630	      0.76256587	     -1.78573717	      2.66115737	      7.84496507	     11.42477483	      0.19939994	     31.47480216	     -0.33028031	      0.00000000	     -2.02171059	     -0.60021528	     -7.98685641	     11.68142933	      0.20387940	     34.53072546	      0.56166764	      0.00000000	      0.01099710	     -0.17336907	     -0.62245730	      0.02042271	     -0.23058086	     -0.66136088	      0.01806713	     -0.42152955	     -0.66136088	      0.01256858	     -0.42152955	     -0.54465014	      0.01021190	     -0.35353420	     -0.50574656	      0.00628374	     -0.26854869	     -0.46684298	      0.07855115	     -1.96118558	     -3.46192078	      0.00000000	      0.00000000	     20.73546268	     -2.01372753	      9.61083420	      3.35399438	    -18.02027138	     54.91836367	     32.41461149	     58.21631600	     -3.14663139	      2.49237700	    -15.80086075	    -16.31342993	      3.84427751	     46.08975704	     88.99967229	    -14.22398164	      3.13851565
      3.86440678	      2.37413953	     -7.01782388	     89.34315789	      0.10071397	      0.72312783	      0.76125883	     -2.13591042	      2.62738402	      7.55490759	     11.25045849	      0.19635754	     31.54286503	      0.27086515	      0.00000000	     -2.22926478	     -0.63862580	     -8.02660758	     11.82180389	      0.20632940	     34.59419370	      0.60335410	      0.00000000	      0.00505955	     -0.18207959	     -0.60661664	      0.00939608	     -0.24216585	     -0.64453018	      0.00831233	     -0.44270831	     -0.64453018	      0.00578256	     -0.44270831	     -0.53078956	      0.00469830	     -0.37129670	     -0.49287602	      0.00289103	     -0.28204128	     -0.45496248	      0.03613984	     -2.05972074	     -3.37381977	      0.00000000	      0.00000000	     20.46674000	     -1.90020308	      9.38462877	      3.23125773	    -17.98558949	     55.11335483	     32.47544237	     57.74523549	     -3.35532128	      2.61930341	    -15.91100458	    -16.41042411	      4.00985379	     46.11330721	     88.99674281	    -14.00567073	      3.27941674
      3.88135593	      2.32872583	     -6.89814029	     89.11917819	      0.10187021	      0.72317331	      0.76000764	     -2.41824629	      2.80851419	      9.76720648	     11.11260951	      0.19395162	     31.05822092	     -2.41988428	      0.00000000	     -2.41532087	     -0.66604581	     -8.40711267	     11.90735793	      0.20782260	     34.67919180	      0.82385514	      0.00000000	      0.00615521	     -0.19839785	     -0.57137925	      0.01143084	     -0.26386914	     -0.60709045	      0.01011239	     -0.48238454	     -0.60709045	      0.00703479	     -0.48238454	     -0.49995684	      0.00571573	     -0.40457290	     -0.46424564	      0.00351709	     -0.30731827	     -0.42853443	      0.04396603	     -2.24431618	     -3.17783995	      0.00000000	      0.00000000	     20.28225662	     -1.35071862	      9.36183801	      2.66254902	    -17.58128500	     52.69505237	     32.43976383	     60.80971463	     -2.57961150	      3.49002477	    -16.19404029	    -16.42397332	      3.33232499	     46.52429836	     89.04711411	    -12.37073413	      4.48423933
